<svg width="38" height="38" viewBox="0 0 38 38" fill="none" xmlns="http://www.w3.org/2000/svg">
<g clip-path="url(#clip0_438_5469)">
<path d="M32.4345 13.4344L29.1875 14.7805L33.407 19L29.1875 23.2195L32.4345 24.5641L38.0001 19L32.4345 13.4344Z" fill="#59CE8F"/>
<path d="M19.0001 33.4069L14.7806 29.1874L13.4346 32.4345L19.0001 38L24.5643 32.4345L23.2196 29.1874L19.0001 33.4069Z" fill="#59CE8F"/>
<path d="M19.0001 4.59307L23.2196 8.81255L24.5643 5.56553L19.0001 0L13.4346 5.56553L14.7806 8.81255L19.0001 4.59307Z" fill="#59CE8F"/>
<path d="M5.56553 13.4344L0 19L5.56553 24.5641L8.81255 23.2195L4.59307 19L8.81255 14.7805L5.56553 13.4344Z" fill="#59CE8F"/>
<path d="M8.81245 23.2195L5.56543 24.5642V32.4345H13.4344L14.7804 29.1875H8.81245V23.2195Z" fill="#F5A31A"/>
<path d="M29.1875 29.1875H23.2195L24.5642 32.4345H32.4345V24.5642L29.1875 23.2195V29.1875Z" fill="#F5A31A"/>
<path d="M24.5642 5.56555L23.2195 8.81257H29.1875V14.7805L32.4345 13.4345V5.56555H24.5642Z" fill="#F5A31A"/>
<path d="M8.81245 8.81257H14.7804L13.4344 5.56555H5.56543V13.4345L8.81245 14.7805V8.81257Z" fill="#F5A31A"/>
<path d="M29.3317 14.7201V8.66834H23.2799L19 4.38843L14.7201 8.66834H8.66834V14.7201L4.38843 19L8.66834 23.2799V29.3317H14.7201L19 33.6116L23.2799 29.3317H29.3317V23.2799L33.6116 19L29.3317 14.7201ZM22.236 26.814L18.9986 30.0514L15.7612 26.814H11.1846V22.236L7.94724 18.9986L11.1846 15.7612V11.186H15.7626L19 7.94861L22.2374 11.186H26.8154V15.764L30.0528 19.0014L26.8154 22.2388V26.8168H22.236V26.814Z" fill="#59CE8F"/>
</g>
<defs>
<clipPath id="clip0_438_5469">
<rect width="38" height="38" fill="white"/>
</clipPath>
</defs>
</svg>
