<svg width="228" height="228" viewBox="0 0 228 228" fill="none" xmlns="http://www.w3.org/2000/svg">
<path d="M204.117 172.326H185.861C184.615 172.326 183.446 172.882 182.667 173.863C180.849 176.117 178.902 178.291 176.85 180.359C168.46 188.933 158.521 195.767 147.584 200.481C136.253 205.367 124.074 207.874 111.774 207.851C99.3347 207.851 87.2854 205.359 75.9632 200.481C65.0261 195.767 55.0874 188.933 46.6969 180.359C38.2913 171.813 31.5889 161.684 26.9609 150.533C22.1568 138.974 19.7417 126.699 19.7417 114C19.7417 101.301 22.1828 89.0263 26.9609 77.4672C31.5833 66.3059 38.2312 56.258 46.6969 47.6417C55.1626 39.0254 65.0046 32.2385 75.9632 27.5194C87.2854 22.6413 99.3347 20.1492 111.774 20.1492C124.212 20.1492 136.262 22.6148 147.584 27.5194C158.543 32.2385 168.385 39.0254 176.85 47.6417C178.902 49.7361 180.823 51.9101 182.667 54.137C183.446 55.118 184.641 55.6747 185.861 55.6747H204.117C205.753 55.6747 206.766 53.8189 205.857 52.4138C185.939 20.812 151.09 -0.105645 111.488 0.00040135C49.2677 0.159471 -0.617464 51.7245 0.00577678 115.167C0.629017 177.601 50.4363 228 111.774 228C151.271 228 185.965 207.109 205.857 175.587C206.74 174.181 205.753 172.326 204.117 172.326ZM227.203 112.33L190.354 82.637C188.977 81.5235 186.978 82.531 186.978 84.3072V104.456H105.437C104.295 104.456 103.36 105.41 103.36 106.577V121.423C103.36 122.59 104.295 123.544 105.437 123.544H186.978V143.693C186.978 145.469 189.003 146.477 190.354 145.363L227.203 115.67C227.451 115.472 227.652 115.219 227.79 114.929C227.928 114.64 228 114.322 228 114C228 113.678 227.928 113.361 227.79 113.071C227.652 112.782 227.451 112.528 227.203 112.33V112.33Z" fill="url(#paint0_linear_3216_50039)"/>
<defs>
<linearGradient id="paint0_linear_3216_50039" x1="3" y1="31.3914" x2="243.97" y2="41.8722" gradientUnits="userSpaceOnUse">
<stop stop-color="#B80F0A"/>
<stop offset="1" stop-color="#D21502"/>
</linearGradient>
</defs>
</svg>
