<svg width="44" height="45" viewBox="0 0 44 45" fill="none" xmlns="http://www.w3.org/2000/svg">
<path d="M22.2039 9.78852C22.1828 9.76231 22.156 9.74118 22.1256 9.7267C22.0952 9.71222 22.062 9.70476 22.0283 9.70488C21.9947 9.705 21.9614 9.71269 21.9312 9.72738C21.9009 9.74207 21.8743 9.76339 21.8533 9.78975L18.0889 14.5292C18.0625 14.5623 18.046 14.6022 18.0413 14.6443C18.0366 14.6864 18.0439 14.7289 18.0623 14.767C18.0808 14.8052 18.1097 14.8373 18.1456 14.8597C18.1815 14.8821 18.2231 14.8938 18.2654 14.8936L19.5333 14.8888C19.5824 14.8886 19.6311 14.8981 19.6766 14.9168C19.7221 14.9354 19.7634 14.9628 19.7983 14.9975C19.8332 15.0321 19.8609 15.0732 19.8798 15.1186C19.8988 15.1639 19.9086 15.2126 19.9088 15.2617L19.9232 19.3767C19.9235 19.4362 19.9473 19.4931 19.9895 19.5351C20.0317 19.577 20.0888 19.6004 20.1483 19.6002L23.978 19.5872C24.0375 19.5869 24.0944 19.5631 24.1363 19.5209C24.1783 19.4787 24.2017 19.4216 24.2015 19.3621L24.1871 15.2471C24.1869 15.1979 24.1964 15.1492 24.2151 15.1037C24.2337 15.0583 24.2611 15.0169 24.2957 14.982C24.3304 14.9472 24.3715 14.9195 24.4169 14.9005C24.4622 14.8816 24.5108 14.8717 24.56 14.8716L25.8278 14.8668C25.8701 14.8666 25.9114 14.8545 25.947 14.8319C25.9827 14.8092 26.0112 14.777 26.0294 14.7389C26.0476 14.7008 26.0546 14.6583 26.0498 14.6164C26.0449 14.5745 26.0283 14.5348 26.0019 14.5018L22.2039 9.78852ZM21.2673 9.32451C21.358 9.21022 21.4733 9.1178 21.6046 9.05411C21.7359 8.99042 21.8798 8.95708 22.0257 8.95657C22.1716 8.95606 22.3158 8.98839 22.4475 9.05116C22.5792 9.11393 22.6951 9.20553 22.7866 9.31918L26.5842 14.0321C27.0961 14.6669 26.6459 15.6123 25.8305 15.6151L24.9368 15.6183L24.9495 19.3591C24.95 19.4868 24.9253 19.6134 24.8768 19.7316C24.8284 19.8498 24.7571 19.9573 24.6671 20.0479C24.5771 20.1386 24.4701 20.2106 24.3523 20.2599C24.2344 20.3092 24.108 20.3348 23.9803 20.3352L20.1509 20.3486C20.0232 20.3491 19.8966 20.3244 19.7784 20.2759C19.6602 20.2274 19.5527 20.1562 19.4621 20.0662C19.3715 19.9762 19.2994 19.8692 19.2502 19.7513C19.2009 19.6335 19.1753 19.5071 19.1748 19.3793L19.1621 15.6385L18.2677 15.6416C17.4523 15.6445 16.9958 14.7027 17.5028 14.064L21.2673 9.32451Z" fill="#F56565"/>
<path d="M18.2588 28.8086C18.7792 28.982 19.3399 28.994 19.8673 28.8431C20.3947 28.6922 20.8641 28.3854 21.214 27.9629V36.0333L11.8867 32.5177V26.6851L18.2588 28.8086Z" fill="#F56565"/>
<path fill-rule="evenodd" clip-rule="evenodd" d="M17.3272 17.1189L11.6335 19.0901L11.6156 19.0955C11.4797 19.1459 11.3607 19.2334 11.2721 19.3481L8.17074 23.2252C8.0924 23.3229 8.03885 23.4381 8.01465 23.561C7.99045 23.6839 7.9963 23.8109 8.03172 23.931C8.06714 24.0512 8.13107 24.161 8.21807 24.2511C8.30507 24.3412 8.41256 24.409 8.53139 24.4486L19.0246 27.9463C19.1835 27.9991 19.3552 27.9992 19.5142 27.9466C19.6731 27.8939 19.8108 27.7913 19.9068 27.6541L21.9907 24.6771L24.0738 27.6541C24.1697 27.7915 24.3076 27.8942 24.4667 27.9468C24.6258 27.9995 24.7977 27.9993 24.9567 27.9463L35.4499 24.4486C35.5688 24.409 35.6764 24.3414 35.7635 24.2513C35.8506 24.1612 35.9146 24.0514 35.9501 23.9312C35.9856 23.8111 35.9915 23.6841 35.9674 23.5612C35.9432 23.4382 35.8897 23.323 35.8114 23.2252L32.71 19.3481C32.6173 19.2282 32.4913 19.1382 32.3478 19.0893L26.6545 17.1187V18.7637L29.7191 19.8246L21.9907 22.5L14.2622 19.8246L17.3272 18.7636V17.1189ZM22.7679 36.5538L32.0952 33.0382V27.2056L25.7231 29.3291C25.2027 29.5025 24.642 29.5145 24.1146 29.3636C23.5873 29.2127 23.1178 28.9059 22.7679 28.4834V36.5538ZM29.6814 31.0543C29.5891 31.2387 29.4274 31.3789 29.2317 31.444L25.734 32.61C25.5384 32.6751 25.3249 32.6599 25.1405 32.5676C24.9561 32.4753 24.8159 32.3136 24.7508 32.1179C24.6856 31.9223 24.7009 31.7088 24.7931 31.5244C24.8854 31.34 25.0471 31.1998 25.2428 31.1347L28.7405 29.9688C28.9361 29.9036 29.1496 29.9189 29.334 30.0112C29.5184 30.1034 29.6586 30.2652 29.7238 30.4608C29.7889 30.6564 29.7737 30.8699 29.6814 31.0543Z" fill="#F56565"/>
</svg>
