<svg width="40" height="43" viewBox="0 0 40 43" fill="none" xmlns="http://www.w3.org/2000/svg">
<path d="M19.872 8.59961C19.114 8.59961 18.3563 8.76562 17.781 9.09812L10.091 13.5379C8.94087 14.2023 8 15.8314 8 17.1592V26.0401C8 27.3682 8.94087 28.9978 10.091 29.6619L17.7811 34.1026C18.3564 34.4341 19.1145 34.5996 19.8721 34.5996C20.6304 34.5996 21.3885 34.4341 21.9631 34.1026L29.6542 29.6619C30.804 28.9978 31.7452 27.3682 31.7452 26.0401V17.1591C31.7452 15.8314 30.804 14.2022 29.6542 13.5378L21.9635 9.09817C21.3883 8.76562 20.6303 8.59961 19.872 8.59961ZM16.8287 16.239L19.8725 17.4378L22.9179 16.239L28.164 18.3777L25.1201 19.5759V24.8229L19.8725 26.9606L14.6255 24.8229V19.5759L11.5806 18.3777L16.8287 16.239ZM14.6255 19.5759L19.8725 21.713L25.1201 19.5759L19.8725 17.4377L14.6255 19.5759Z" fill="#0DCAF0"/>
</svg>
