<svg width="25" height="24" viewBox="0 0 25 24" fill="none" xmlns="http://www.w3.org/2000/svg">
<path d="M16.0506 14.0229C15.0136 14.6319 13.8476 14.9999 12.5896 14.9999C11.3316 14.9999 10.1656 14.6319 9.1286 14.0229C5.4836 14.2619 2.5896 17.2959 2.5896 21V22.7299L3.2846 22.9529C3.4186 22.9949 6.6276 24 12.5896 24C18.5516 24 21.7606 22.9949 21.8946 22.9529L22.5896 22.7299V21C22.5896 17.2959 19.6956 14.2619 16.0506 14.0229Z" fill="white"/>
<path d="M12.5896 13C15.9686 13 18.5896 9.237 18.5896 6C18.5896 2.691 15.8986 0 12.5896 0C9.2806 0 6.5896 2.691 6.5896 6C6.5896 9.237 9.2106 13 12.5896 13Z" fill="white"/>
</svg>
