<svg width="33" height="32" viewBox="0 0 33 32" fill="none" xmlns="http://www.w3.org/2000/svg">
<path d="M24.75 23H26.25C26.9124 22.998 27.5472 22.734 28.0156 22.2656C28.484 21.7972 28.748 21.1624 28.75 20.5V10.5C28.748 9.83757 28.484 9.20283 28.0156 8.73442C27.5472 8.26601 26.9124 8.00198 26.25 8H7.25C6.58757 8.00198 5.95283 8.26601 5.48442 8.73442C5.01601 9.20283 4.75198 9.83757 4.75 10.5V20.5C4.75198 21.1624 5.01601 21.7972 5.48442 22.2656C5.95283 22.734 6.58757 22.998 7.25 23H8.75" stroke="url(#paint0_linear_5345_38532)" stroke-width="2" stroke-linejoin="round"/>
<path d="M23.23 15H10.27C9.43053 15 8.75 15.6805 8.75 16.52V26.48C8.75 27.3195 9.43053 28 10.27 28H23.23C24.0695 28 24.75 27.3195 24.75 26.48V16.52C24.75 15.6805 24.0695 15 23.23 15Z" stroke="url(#paint1_linear_5345_38532)" stroke-width="2" stroke-linejoin="round"/>
<path d="M24.75 8V6.5C24.748 5.83757 24.484 5.20283 24.0156 4.73442C23.5472 4.26601 22.9124 4.00198 22.25 4H11.25C10.5876 4.00198 9.95283 4.26601 9.48442 4.73442C9.01601 5.20283 8.75198 5.83757 8.75 6.5V8" stroke="url(#paint2_linear_5345_38532)" stroke-width="2" stroke-linejoin="round"/>
<path d="M25.25 13C26.0784 13 26.75 12.3284 26.75 11.5C26.75 10.6716 26.0784 10 25.25 10C24.4216 10 23.75 10.6716 23.75 11.5C23.75 12.3284 24.4216 13 25.25 13Z" fill="url(#paint3_linear_5345_38532)"/>
<defs>
<linearGradient id="paint0_linear_5345_38532" x1="-1.60625" y1="2.65278" x2="29.774" y2="4.09622" gradientUnits="userSpaceOnUse">
<stop stop-color="#045A71"/>
<stop offset="1" stop-color="#01A1B9"/>
</linearGradient>
<linearGradient id="paint1_linear_5345_38532" x1="4.5125" y1="10.3657" x2="25.4507" y2="11.1066" gradientUnits="userSpaceOnUse">
<stop stop-color="#045A71"/>
<stop offset="1" stop-color="#01A1B9"/>
</linearGradient>
<linearGradient id="paint2_linear_5345_38532" x1="4.5125" y1="2.57408" x2="25.2033" y2="4.95342" gradientUnits="userSpaceOnUse">
<stop stop-color="#045A71"/>
<stop offset="1" stop-color="#01A1B9"/>
</linearGradient>
<linearGradient id="paint3_linear_5345_38532" x1="22.9555" y1="8.93056" x2="26.8831" y2="9.04347" gradientUnits="userSpaceOnUse">
<stop stop-color="#045A71"/>
<stop offset="1" stop-color="#01A1B9"/>
</linearGradient>
</defs>
</svg>
