<svg width="40" height="45" viewBox="0 0 40 45" fill="none" xmlns="http://www.w3.org/2000/svg">
<path fill-rule="evenodd" clip-rule="evenodd" d="M8 9.16166C8 8.52441 8.51659 8.00781 9.15385 8.00781H21.6154C21.6968 8.00781 21.7762 8.01624 21.8529 8.03227C22.0793 8.01606 22.3079 8.00781 22.5385 8.00781C27.7639 8.00781 32 12.2439 32 17.4694C32 22.6948 22.5385 36.1617 22.5385 36.1617C22.5385 36.1617 17.3236 28.7392 14.6369 22.777H9.15385C8.51659 22.777 8 22.2604 8 21.6232C8 20.9859 8.51659 20.4693 9.15385 20.4693H13.708C13.4802 19.8089 13.3057 19.1882 13.1985 18.6232H9.15385C8.51659 18.6232 8 18.1066 8 17.4694C8 16.8321 8.51659 16.3155 9.15385 16.3155H13.1466C13.224 15.6784 13.3648 15.0609 13.5624 14.4693H9.15385C8.51659 14.4693 8 13.9527 8 13.3155C8 12.6782 8.51659 12.1616 9.15385 12.1616H14.7048C15.1698 11.4767 15.7222 10.856 16.3461 10.3155H9.15385C8.5166 10.3155 8 9.79891 8 9.16166ZM26.9231 17.4694C26.9231 19.8909 24.9601 21.854 22.5385 21.854C20.117 21.854 18.1539 19.8909 18.1539 17.4694C18.1539 15.0478 20.117 13.0847 22.5385 13.0847C24.9601 13.0847 26.9231 15.0478 26.9231 17.4694Z" fill="url(#paint0_linear_1797_7892)"/>
<defs>
<linearGradient id="paint0_linear_1797_7892" x1="8.31579" y1="11.8841" x2="33.6942" y2="12.825" gradientUnits="userSpaceOnUse">
<stop stop-color="#045A71"/>
<stop offset="1" stop-color="#01A1B9"/>
</linearGradient>
</defs>
</svg>
